<?xml version="1.0" encoding="UTF-8"?>
<svg width="258px" height="80px" viewBox="0 0 258 80" version="1.1" xmlns="http://www.w3.org/2000/svg" xmlns:xlink="http://www.w3.org/1999/xlink">
    <title>logo/sccon</title>
    <g id="logo/sccon" stroke="none" stroke-width="1" fill="none" fill-rule="evenodd">
        <g id="Group-2-Copy-3" fill="#FFFFFF">
            <g id="SCCON-2">
                <path d="M19.0511628,53.3953488 C23.1689922,53.3953488 26.6418605,52.7751938 29.4697674,51.5348837 C32.2976744,50.2945736 34.3937984,48.6325581 35.7581395,46.5488372 C37.1224806,44.4651163 37.8046512,42.1581395 37.8046512,39.627907 C37.8046512,36.551938 36.9984496,34.1085271 35.3860465,32.2976744 C33.7736434,30.4868217 31.8263566,29.1348837 29.544186,28.2418605 C27.2620155,27.3488372 24.2108527,26.4310078 20.3906977,25.4883721 C16.9674419,24.6449612 14.2635659,23.8511628 12.2790698,23.1069767 C10.2945736,22.3627907 8.63255814,21.296124 7.29302326,19.9069767 C5.95348837,18.5178295 5.28372093,16.6573643 5.28372093,14.3255814 C5.28372093,11.2496124 6.52403101,8.74418605 9.00465116,6.80930233 C11.4852713,4.8744186 15.1317829,3.90697674 19.944186,3.90697674 C22.3751938,3.90697674 24.8434109,4.27906977 27.3488372,5.02325581 C29.8542636,5.76744186 32.1488372,6.85891473 34.2325581,8.29767442 L34.2325581,8.29767442 L35.6465116,5.24651163 C33.6124031,3.80775194 31.2062016,2.66666667 28.427907,1.82325581 C25.6496124,0.979844961 22.8217054,0.558139535 19.944186,0.558139535 C15.8263566,0.558139535 12.3906977,1.17829457 9.6372093,2.41860465 C6.88372093,3.65891473 4.8372093,5.33333333 3.49767442,7.44186047 C2.15813953,9.5503876 1.48837209,11.8697674 1.48837209,14.4 C1.48837209,17.5255814 2.29457364,20.0186047 3.90697674,21.8790698 C5.51937984,23.7395349 7.47906977,25.1162791 9.78604651,26.0093023 C12.0930233,26.9023256 15.1565891,27.820155 18.9767442,28.7627907 C22.3503876,29.5565891 25.0294574,30.3255814 27.0139535,31.0697674 C28.9984496,31.8139535 30.6604651,32.8806202 32,34.2697674 C33.3395349,35.6589147 34.0093023,37.5193798 34.0093023,39.8511628 C34.0093023,42.8775194 32.744186,45.3333333 30.2139535,47.2186047 C27.6837209,49.103876 23.9379845,50.0465116 18.9767442,50.0465116 C15.5534884,50.0465116 12.2914729,49.4387597 9.19069767,48.2232558 C6.08992248,47.0077519 3.62170543,45.4325581 1.78604651,43.4976744 L1.78604651,43.4976744 L0.0744186047,46.3255814 C2.00930233,48.4093023 4.70077519,50.1085271 8.14883721,51.4232558 C11.5968992,52.7379845 15.2310078,53.3953488 19.0511628,53.3953488 Z M72.7069767,53.3953488 C76.427907,53.3953488 79.8883721,52.7751938 83.0883721,51.5348837 C86.2883721,50.2945736 89.0046512,48.4837209 91.2372093,46.1023256 L91.2372093,46.1023256 L88.855814,43.6465116 C84.6387597,47.8139535 79.3054264,49.8976744 72.855814,49.8976744 C68.4899225,49.8976744 64.5209302,48.9054264 60.9488372,46.9209302 C57.3767442,44.9364341 54.5736434,42.1953488 52.5395349,38.6976744 C50.5054264,35.2 49.4883721,31.2930233 49.4883721,26.9767442 C49.4883721,22.6604651 50.5054264,18.7534884 52.5395349,15.255814 C54.5736434,11.7581395 57.3767442,9.01705426 60.9488372,7.03255814 C64.5209302,5.04806202 68.4899225,4.05581395 72.855814,4.05581395 C79.3550388,4.05581395 84.6883721,6.11472868 88.855814,10.2325581 L88.855814,10.2325581 L91.2372093,7.77674419 C89.0046512,5.39534884 86.3007752,3.59689922 83.1255814,2.38139535 C79.9503876,1.16589147 76.4775194,0.558139535 72.7069767,0.558139535 C67.5968992,0.558139535 62.9953488,1.69922481 58.9023256,3.98139535 C54.8093023,6.26356589 51.5844961,9.41395349 49.227907,13.4325581 C46.8713178,17.4511628 45.6930233,21.9658915 45.6930233,26.9767442 C45.6930233,31.9875969 46.8713178,36.5023256 49.227907,40.5209302 C51.5844961,44.5395349 54.8093023,47.6899225 58.9023256,49.972093 C62.9953488,52.2542636 67.5968992,53.3953488 72.7069767,53.3953488 Z M125.990698,53.3953488 C129.711628,53.3953488 133.172093,52.7751938 136.372093,51.5348837 C139.572093,50.2945736 142.288372,48.4837209 144.52093,46.1023256 L144.52093,46.1023256 L142.139535,43.6465116 C137.922481,47.8139535 132.589147,49.8976744 126.139535,49.8976744 C121.773643,49.8976744 117.804651,48.9054264 114.232558,46.9209302 C110.660465,44.9364341 107.857364,42.1953488 105.823256,38.6976744 C103.789147,35.2 102.772093,31.2930233 102.772093,26.9767442 C102.772093,22.6604651 103.789147,18.7534884 105.823256,15.255814 C107.857364,11.7581395 110.660465,9.01705426 114.232558,7.03255814 C117.804651,5.04806202 121.773643,4.05581395 126.139535,4.05581395 C132.63876,4.05581395 137.972093,6.11472868 142.139535,10.2325581 L142.139535,10.2325581 L144.52093,7.77674419 C142.288372,5.39534884 139.584496,3.59689922 136.409302,2.38139535 C133.234109,1.16589147 129.76124,0.558139535 125.990698,0.558139535 C120.88062,0.558139535 116.27907,1.69922481 112.186047,3.98139535 C108.093023,6.26356589 104.868217,9.41395349 102.511628,13.4325581 C100.155039,17.4511628 98.9767442,21.9658915 98.9767442,26.9767442 C98.9767442,31.9875969 100.155039,36.5023256 102.511628,40.5209302 C104.868217,44.5395349 108.093023,47.6899225 112.186047,49.972093 C116.27907,52.2542636 120.88062,53.3953488 125.990698,53.3953488 Z M179.348837,53.3953488 C184.458915,53.3953488 189.072868,52.2542636 193.190698,49.972093 C197.308527,47.6899225 200.545736,44.5395349 202.902326,40.5209302 C205.258915,36.5023256 206.437209,31.9875969 206.437209,26.9767442 C206.437209,21.9658915 205.258915,17.4511628 202.902326,13.4325581 C200.545736,9.41395349 197.308527,6.26356589 193.190698,3.98139535 C189.072868,1.69922481 184.458915,0.558139535 179.348837,0.558139535 C174.23876,0.558139535 169.624806,1.71162791 165.506977,4.01860465 C161.389147,6.3255814 158.151938,9.48837209 155.795349,13.5069767 C153.43876,17.5255814 152.260465,22.0155039 152.260465,26.9767442 C152.260465,31.9379845 153.43876,36.427907 155.795349,40.4465116 C158.151938,44.4651163 161.389147,47.627907 165.506977,49.9348837 C169.624806,52.2418605 174.23876,53.3953488 179.348837,53.3953488 Z M179.348837,49.8976744 C174.982946,49.8976744 171.026357,48.9054264 167.47907,46.9209302 C163.931783,44.9364341 161.141085,42.1953488 159.106977,38.6976744 C157.072868,35.2 156.055814,31.2930233 156.055814,26.9767442 C156.055814,22.6604651 157.072868,18.7534884 159.106977,15.255814 C161.141085,11.7581395 163.931783,9.01705426 167.47907,7.03255814 C171.026357,5.04806202 174.982946,4.05581395 179.348837,4.05581395 C183.714729,4.05581395 187.658915,5.04806202 191.181395,7.03255814 C194.703876,9.01705426 197.482171,11.7581395 199.516279,15.255814 C201.550388,18.7534884 202.567442,22.6604651 202.567442,26.9767442 C202.567442,31.2930233 201.550388,35.2 199.516279,38.6976744 C197.482171,42.1953488 194.703876,44.9364341 191.181395,46.9209302 C187.658915,48.9054264 183.714729,49.8976744 179.348837,49.8976744 Z M217.823256,53.0232558 L217.823256,7.77674419 L253.32093,53.0232558 L256.446512,53.0232558 L256.446512,0.930232558 L252.651163,0.930232558 L252.651163,46.1767442 L217.227907,0.930232558 L214.027907,0.930232558 L214.027907,53.0232558 L217.823256,53.0232558 Z" id="SCCON" fill-rule="nonzero"></path>
                <g id="Group-6-Copy" transform="translate(166.511628, 9.302326)">
                    <path d="M8.55813953,27.2135307 L13.4951129,30.5116279 C16.3981575,22.0267794 20.5819571,11.94926 26.0465116,0.279069767 L20.1550388,0.279069767 C17.4393912,5.54848573 15.3901832,9.79090997 14.0074149,13.0063425 C12.6246466,16.221775 10.8082215,20.9575044 8.55813953,27.2135307 Z" id="Path-3"></path>
                    <path d="M3.06976744,36.2790698 L0,33.0306647 C1.69943656,27.6524989 3.09829571,23.5391697 4.19657745,20.6906771 C5.29485918,17.8421845 7.05001495,13.7590398 9.46204476,8.44124305 L13.6744186,8.18604651 C10.7715022,14.9575504 8.6653153,20.0614812 7.35585783,23.4978391 C6.04640037,26.9341969 4.61770357,31.1946071 3.06976744,36.2790698 Z" id="Path-4"></path>
                </g>
            </g>
            <g id="Group" transform="translate(122.790698, 63.348837)" fill-rule="nonzero">
                <path d="M7.6855814,14.9544186 C8.70883721,14.9544186 9.69116279,14.7975194 10.6325581,14.4837209 C11.5739535,14.1699225 12.3993798,13.7196899 13.1088372,13.1330233 L13.1088372,13.1330233 L13.1088372,7.54604651 L11.144186,7.54604651 L11.144186,12.212093 C10.1891473,12.8260465 9.0703876,13.1330233 7.78790698,13.1330233 C6.71007752,13.1330233 5.7379845,12.8942636 4.87162791,12.4167442 C4.00527132,11.9392248 3.32651163,11.2809302 2.83534884,10.4418605 C2.34418605,9.6027907 2.09860465,8.6648062 2.09860465,7.62790698 C2.09860465,6.57736434 2.34418605,5.63255814 2.83534884,4.79348837 C3.32651163,3.9544186 4.00527132,3.29953488 4.87162791,2.82883721 C5.7379845,2.35813953 6.71689922,2.1227907 7.80837209,2.1227907 C9.43193798,2.1227907 10.8167442,2.67534884 11.9627907,3.78046512 L11.9627907,3.78046512 L13.2316279,2.51162791 C12.5767442,1.78852713 11.7820155,1.23937984 10.8474419,0.864186047 C9.91286822,0.488992248 8.87255814,0.301395349 7.72651163,0.301395349 C6.26666667,0.301395349 4.95348837,0.615193798 3.78697674,1.2427907 C2.62046512,1.8703876 1.70635659,2.74356589 1.04465116,3.86232558 C0.382945736,4.98108527 0.0520930233,6.23627907 0.0520930233,7.62790698 C0.0520930233,9.01953488 0.382945736,10.2713178 1.04465116,11.3832558 C1.70635659,12.4951938 2.61705426,13.3683721 3.77674419,14.0027907 C4.93643411,14.6372093 6.23937984,14.9544186 7.6855814,14.9544186 Z M27.4139535,14.7906977 L27.4139535,13.0102326 L19.064186,13.0102326 L19.064186,8.38511628 L26.2474419,8.38511628 L26.2474419,6.6455814 L19.064186,6.6455814 L19.064186,2.2455814 L27.1274419,2.2455814 L27.1274419,0.465116279 L17.0176744,0.465116279 L17.0176744,14.7906977 L27.4139535,14.7906977 Z M37.1962791,14.9544186 C38.6288372,14.9544186 39.9249612,14.6372093 41.0846512,14.0027907 C42.2443411,13.3683721 43.1516279,12.4951938 43.8065116,11.3832558 C44.4613953,10.2713178 44.7888372,9.01953488 44.7888372,7.62790698 C44.7888372,6.23627907 44.4613953,4.98449612 43.8065116,3.87255814 C43.1516279,2.76062016 42.2443411,1.88744186 41.0846512,1.25302326 C39.9249612,0.618604651 38.6288372,0.301395349 37.1962791,0.301395349 C35.7500775,0.301395349 34.4471318,0.618604651 33.2874419,1.25302326 C32.1277519,1.88744186 31.2170543,2.76403101 30.5553488,3.8827907 C29.8936434,5.00155039 29.5627907,6.24992248 29.5627907,7.62790698 C29.5627907,9.00589147 29.8936434,10.2542636 30.5553488,11.3730233 C31.2170543,12.4917829 32.1277519,13.3683721 33.2874419,14.0027907 C34.4471318,14.6372093 35.7500775,14.9544186 37.1962791,14.9544186 Z M37.1962791,13.1330233 C36.1457364,13.1330233 35.1941085,12.8942636 34.3413953,12.4167442 C33.4886822,11.9392248 32.820155,11.2809302 32.335814,10.4418605 C31.8514729,9.6027907 31.6093023,8.6648062 31.6093023,7.62790698 C31.6093023,6.59100775 31.8514729,5.65302326 32.335814,4.81395349 C32.820155,3.97488372 33.4886822,3.31658915 34.3413953,2.83906977 C35.1941085,2.36155039 36.1457364,2.1227907 37.1962791,2.1227907 C38.2468217,2.1227907 39.1916279,2.36155039 40.0306977,2.83906977 C40.8697674,3.31658915 41.5314729,3.97488372 42.015814,4.81395349 C42.500155,5.65302326 42.7423256,6.59100775 42.7423256,7.62790698 C42.7423256,8.6648062 42.500155,9.6027907 42.015814,10.4418605 C41.5314729,11.2809302 40.8697674,11.9392248 40.0306977,12.4167442 C39.1916279,12.8942636 38.2468217,13.1330233 37.1962791,13.1330233 Z M52.0948837,14.9544186 C53.3091473,14.9544186 54.3324031,14.7736434 55.1646512,14.412093 C55.9968992,14.0505426 56.6176744,13.5593798 57.0269767,12.9386047 C57.4362791,12.3178295 57.6409302,11.6322481 57.6409302,10.8818605 C57.6409302,9.98139535 57.4055814,9.26511628 56.9348837,8.73302326 C56.464186,8.20093023 55.9013953,7.80527132 55.2465116,7.54604651 C54.5916279,7.28682171 53.7252713,7.0275969 52.6474419,6.76837209 C51.8151938,6.57736434 51.1568992,6.39658915 50.6725581,6.22604651 C50.1882171,6.05550388 49.7823256,5.81674419 49.4548837,5.50976744 C49.1274419,5.2027907 48.9637209,4.80372093 48.9637209,4.31255814 C48.9637209,3.64403101 49.2536434,3.09829457 49.8334884,2.67534884 C50.4133333,2.2524031 51.2831008,2.04093023 52.4427907,2.04093023 C53.0976744,2.04093023 53.7662016,2.13984496 54.4483721,2.33767442 C55.1305426,2.53550388 55.7717829,2.82542636 56.372093,3.20744186 L56.372093,3.20744186 L57.0474419,1.57023256 C56.4607752,1.16093023 55.7581395,0.847131783 54.9395349,0.628837209 C54.1209302,0.410542636 53.2886822,0.301395349 52.4427907,0.301395349 C51.2285271,0.301395349 50.212093,0.485581395 49.3934884,0.853953488 C48.5748837,1.22232558 47.9643411,1.71348837 47.5618605,2.32744186 C47.1593798,2.94139535 46.9581395,3.6303876 46.9581395,4.3944186 C46.9581395,5.30852713 47.1934884,6.03503876 47.664186,6.57395349 C48.1348837,7.11286822 48.7010853,7.51193798 49.3627907,7.77116279 C50.0244961,8.0303876 50.8942636,8.2896124 51.972093,8.54883721 C52.8316279,8.75348837 53.4967442,8.93767442 53.9674419,9.10139535 C54.4381395,9.26511628 54.8337984,9.50046512 55.1544186,9.80744186 C55.4750388,10.1144186 55.6353488,10.5134884 55.6353488,11.0046512 C55.6353488,11.6731783 55.3420155,12.2086822 54.7553488,12.6111628 C54.1686822,13.0136434 53.2818605,13.2148837 52.0948837,13.2148837 C51.1944186,13.2148837 50.3178295,13.0613953 49.4651163,12.7544186 C48.6124031,12.4474419 47.9131783,12.0483721 47.3674419,11.5572093 L47.3674419,11.5572093 L46.6102326,13.1534884 C47.1832558,13.6855814 47.9711628,14.1187597 48.9739535,14.4530233 C49.9767442,14.7872868 51.0170543,14.9544186 52.0948837,14.9544186 Z M62.6753488,14.7906977 L62.6753488,10.452093 L66.215814,10.452093 C68.0713178,10.452093 69.5311628,10.0086822 70.5953488,9.12186047 C71.6595349,8.23503876 72.1916279,7.01395349 72.1916279,5.45860465 C72.1916279,3.90325581 71.6595349,2.68217054 70.5953488,1.79534884 C69.5311628,0.908527132 68.0713178,0.465116279 66.215814,0.465116279 L66.215814,0.465116279 L60.6288372,0.465116279 L60.6288372,14.7906977 L62.6753488,14.7906977 Z M66.1544186,8.67162791 L62.6753488,8.67162791 L62.6753488,2.2455814 L66.1544186,2.2455814 C67.4505426,2.2455814 68.4396899,2.52186047 69.1218605,3.0744186 C69.804031,3.62697674 70.1451163,4.42170543 70.1451163,5.45860465 C70.1451163,6.49550388 69.804031,7.29023256 69.1218605,7.8427907 C68.4396899,8.39534884 67.4505426,8.67162791 66.1544186,8.67162791 L66.1544186,8.67162791 Z M75.3432558,14.7906977 L76.9190698,11.2093023 L84.532093,11.2093023 L86.107907,14.7906977 L88.2567442,14.7906977 L81.7488372,0.465116279 L79.7227907,0.465116279 L73.2353488,14.7906977 L75.3432558,14.7906977 Z M83.815814,9.57209302 L77.6353488,9.57209302 L80.7255814,2.55255814 L83.815814,9.57209302 Z M95.255814,14.7906977 L95.255814,2.2455814 L100.167442,2.2455814 L100.167442,0.465116279 L88.3181395,0.465116279 L88.3181395,2.2455814 L93.2297674,2.2455814 L93.2297674,14.7906977 L95.255814,14.7906977 Z M104.444651,14.7906977 L104.444651,0.465116279 L102.39814,0.465116279 L102.39814,14.7906977 L104.444651,14.7906977 Z M108.68093,14.7906977 L110.256744,11.2093023 L117.869767,11.2093023 L119.445581,14.7906977 L121.594419,14.7906977 L115.086512,0.465116279 L113.060465,0.465116279 L106.573023,14.7906977 L108.68093,14.7906977 Z M117.153488,9.57209302 L110.973023,9.57209302 L114.063256,2.55255814 L117.153488,9.57209302 Z M133.525581,14.7906977 L133.525581,13.0102326 L125.769302,13.0102326 L125.769302,0.465116279 L123.722791,0.465116279 L123.722791,14.7906977 L133.525581,14.7906977 Z" id="GEOSPATIAL"></path>
                <polygon id="-" points="13.1069767 8.44093023 13.1069767 6.74232558 7.58511628 6.74232558 7.58511628 8.44093023"></polygon>
            </g>
        </g>
    </g>
</svg>