<?xml version="1.0" encoding="UTF-8"?>
<svg width="194px" height="60px" viewBox="0 0 194 60" version="1.1" xmlns="http://www.w3.org/2000/svg" xmlns:xlink="http://www.w3.org/1999/xlink">
    <title>logo/xs</title>
    <g id="logo/xs" stroke="none" stroke-width="1" fill="none" fill-rule="evenodd">
        <g id="Group-2-Copy-3" fill="#FFFFFF">
            <g id="SCCON-2">
                <path d="M14.2883721,40.0465116 C17.3767442,40.0465116 19.9813953,39.5813953 22.1023256,38.6511628 C24.2232558,37.7209302 25.7953488,36.4744186 26.8186047,34.9116279 C27.8418605,33.3488372 28.3534884,31.6186047 28.3534884,29.7209302 C28.3534884,27.4139535 27.7488372,25.5813953 26.5395349,24.2232558 C25.3302326,22.8651163 23.8697674,21.8511628 22.1581395,21.1813953 C20.4465116,20.5116279 18.1581395,19.8232558 15.2930233,19.1162791 C12.7255814,18.4837209 10.6976744,17.8883721 9.20930233,17.3302326 C7.72093023,16.772093 6.4744186,15.972093 5.46976744,14.9302326 C4.46511628,13.8883721 3.9627907,12.4930233 3.9627907,10.744186 C3.9627907,8.4372093 4.89302326,6.55813953 6.75348837,5.10697674 C8.61395349,3.65581395 11.3488372,2.93023256 14.9581395,2.93023256 C16.7813953,2.93023256 18.6325581,3.20930233 20.5116279,3.76744186 C22.3906977,4.3255814 24.1116279,5.14418605 25.6744186,6.22325581 L25.6744186,6.22325581 L26.7348837,3.93488372 C25.2093023,2.85581395 23.4046512,2 21.3209302,1.36744186 C19.2372093,0.734883721 17.1162791,0.418604651 14.9581395,0.418604651 C11.8697674,0.418604651 9.29302326,0.88372093 7.22790698,1.81395349 C5.1627907,2.74418605 3.62790698,4 2.62325581,5.58139535 C1.61860465,7.1627907 1.11627907,8.90232558 1.11627907,10.8 C1.11627907,13.144186 1.72093023,15.0139535 2.93023256,16.4093023 C4.13953488,17.8046512 5.60930233,18.8372093 7.33953488,19.5069767 C9.06976744,20.1767442 11.3674419,20.8651163 14.2325581,21.572093 C16.7627907,22.1674419 18.772093,22.744186 20.2604651,23.3023256 C21.7488372,23.8604651 22.9953488,24.6604651 24,25.7023256 C25.0046512,26.744186 25.5069767,28.1395349 25.5069767,29.8883721 C25.5069767,32.1581395 24.5581395,34 22.6604651,35.4139535 C20.7627907,36.827907 17.9534884,37.5348837 14.2325581,37.5348837 C11.6651163,37.5348837 9.21860465,37.0790698 6.89302326,36.1674419 C4.56744186,35.255814 2.71627907,34.0744186 1.33953488,32.6232558 L1.33953488,32.6232558 L0.0558139535,34.744186 C1.50697674,36.3069767 3.5255814,37.5813953 6.11162791,38.5674419 C8.69767442,39.5534884 11.4232558,40.0465116 14.2883721,40.0465116 Z M54.5302326,40.0465116 C57.3209302,40.0465116 59.9162791,39.5813953 62.3162791,38.6511628 C64.7162791,37.7209302 66.7534884,36.3627907 68.427907,34.5767442 L68.427907,34.5767442 L66.6418605,32.7348837 C63.4790698,35.8604651 59.4790698,37.4232558 54.6418605,37.4232558 C51.3674419,37.4232558 48.3906977,36.6790698 45.7116279,35.1906977 C43.0325581,33.7023256 40.9302326,31.6465116 39.4046512,29.0232558 C37.8790698,26.4 37.1162791,23.4697674 37.1162791,20.2325581 C37.1162791,16.9953488 37.8790698,14.0651163 39.4046512,11.4418605 C40.9302326,8.81860465 43.0325581,6.7627907 45.7116279,5.2744186 C48.3906977,3.78604651 51.3674419,3.04186047 54.6418605,3.04186047 C59.5162791,3.04186047 63.5162791,4.58604651 66.6418605,7.6744186 L66.6418605,7.6744186 L68.427907,5.83255814 C66.7534884,4.04651163 64.7255814,2.69767442 62.344186,1.78604651 C59.9627907,0.874418605 57.3581395,0.418604651 54.5302326,0.418604651 C50.6976744,0.418604651 47.2465116,1.2744186 44.1767442,2.98604651 C41.1069767,4.69767442 38.6883721,7.06046512 36.9209302,10.0744186 C35.1534884,13.0883721 34.2697674,16.4744186 34.2697674,20.2325581 C34.2697674,23.9906977 35.1534884,27.3767442 36.9209302,30.3906977 C38.6883721,33.4046512 41.1069767,35.7674419 44.1767442,37.4790698 C47.2465116,39.1906977 50.6976744,40.0465116 54.5302326,40.0465116 Z M94.4930233,40.0465116 C97.2837209,40.0465116 99.8790698,39.5813953 102.27907,38.6511628 C104.67907,37.7209302 106.716279,36.3627907 108.390698,34.5767442 L108.390698,34.5767442 L106.604651,32.7348837 C103.44186,35.8604651 99.4418605,37.4232558 94.6046512,37.4232558 C91.3302326,37.4232558 88.3534884,36.6790698 85.6744186,35.1906977 C82.9953488,33.7023256 80.8930233,31.6465116 79.3674419,29.0232558 C77.8418605,26.4 77.0790698,23.4697674 77.0790698,20.2325581 C77.0790698,16.9953488 77.8418605,14.0651163 79.3674419,11.4418605 C80.8930233,8.81860465 82.9953488,6.7627907 85.6744186,5.2744186 C88.3534884,3.78604651 91.3302326,3.04186047 94.6046512,3.04186047 C99.4790698,3.04186047 103.47907,4.58604651 106.604651,7.6744186 L106.604651,7.6744186 L108.390698,5.83255814 C106.716279,4.04651163 104.688372,2.69767442 102.306977,1.78604651 C99.9255814,0.874418605 97.3209302,0.418604651 94.4930233,0.418604651 C90.6604651,0.418604651 87.2093023,1.2744186 84.1395349,2.98604651 C81.0697674,4.69767442 78.6511628,7.06046512 76.8837209,10.0744186 C75.1162791,13.0883721 74.2325581,16.4744186 74.2325581,20.2325581 C74.2325581,23.9906977 75.1162791,27.3767442 76.8837209,30.3906977 C78.6511628,33.4046512 81.0697674,35.7674419 84.1395349,37.4790698 C87.2093023,39.1906977 90.6604651,40.0465116 94.4930233,40.0465116 Z M134.511628,40.0465116 C138.344186,40.0465116 141.804651,39.1906977 144.893023,37.4790698 C147.981395,35.7674419 150.409302,33.4046512 152.176744,30.3906977 C153.944186,27.3767442 154.827907,23.9906977 154.827907,20.2325581 C154.827907,16.4744186 153.944186,13.0883721 152.176744,10.0744186 C150.409302,7.06046512 147.981395,4.69767442 144.893023,2.98604651 C141.804651,1.2744186 138.344186,0.418604651 134.511628,0.418604651 C130.67907,0.418604651 127.218605,1.28372093 124.130233,3.01395349 C121.04186,4.74418605 118.613953,7.11627907 116.846512,10.1302326 C115.07907,13.144186 114.195349,16.5116279 114.195349,20.2325581 C114.195349,23.9534884 115.07907,27.3209302 116.846512,30.3348837 C118.613953,33.3488372 121.04186,35.7209302 124.130233,37.4511628 C127.218605,39.1813953 130.67907,40.0465116 134.511628,40.0465116 Z M134.511628,37.4232558 C131.237209,37.4232558 128.269767,36.6790698 125.609302,35.1906977 C122.948837,33.7023256 120.855814,31.6465116 119.330233,29.0232558 C117.804651,26.4 117.04186,23.4697674 117.04186,20.2325581 C117.04186,16.9953488 117.804651,14.0651163 119.330233,11.4418605 C120.855814,8.81860465 122.948837,6.7627907 125.609302,5.2744186 C128.269767,3.78604651 131.237209,3.04186047 134.511628,3.04186047 C137.786047,3.04186047 140.744186,3.78604651 143.386047,5.2744186 C146.027907,6.7627907 148.111628,8.81860465 149.637209,11.4418605 C151.162791,14.0651163 151.925581,16.9953488 151.925581,20.2325581 C151.925581,23.4697674 151.162791,26.4 149.637209,29.0232558 C148.111628,31.6465116 146.027907,33.7023256 143.386047,35.1906977 C140.744186,36.6790698 137.786047,37.4232558 134.511628,37.4232558 Z M163.367442,39.7674419 L163.367442,5.83255814 L189.990698,39.7674419 L192.334884,39.7674419 L192.334884,0.697674419 L189.488372,0.697674419 L189.488372,34.6325581 L162.92093,0.697674419 L160.52093,0.697674419 L160.52093,39.7674419 L163.367442,39.7674419 Z" id="SCCON" fill-rule="nonzero"></path>
                <g id="Group-6-Copy" transform="translate(124.883721, 6.976744)">
                    <path d="M6.41860465,20.410148 L10.1213347,22.8837209 C12.2986181,16.5200846 15.4364678,8.96194503 19.5348837,0.209302326 L15.1162791,0.209302326 C13.0795434,4.1613643 11.5426374,7.34318248 10.5055612,9.75475687 C9.46848494,12.1663313 8.1061661,15.7181283 6.41860465,20.410148 Z" id="Path-3"></path>
                    <path d="M2.30232558,27.2093023 L0,24.7729986 C1.27457742,20.7393742 2.32372178,17.6543773 3.14743308,15.5180078 C3.97114439,13.3816384 5.28751122,10.3192799 7.09653357,6.33093229 L10.255814,6.13953488 C8.07862667,11.2181628 6.49898647,15.0461109 5.51689337,17.6233793 C4.53480028,20.2006477 3.46327768,23.3959553 2.30232558,27.2093023 Z" id="Path-4"></path>
                </g>
            </g>
            <g id="Group" transform="translate(92.093023, 47.511628)" fill-rule="nonzero">
                <path d="M5.76418605,11.215814 C6.53162791,11.215814 7.26837209,11.0981395 7.9744186,10.8627907 C8.68046512,10.6274419 9.29953488,10.2897674 9.83162791,9.84976744 L9.83162791,9.84976744 L9.83162791,5.65953488 L8.35813953,5.65953488 L8.35813953,9.15906977 C7.64186047,9.61953488 6.8027907,9.84976744 5.84093023,9.84976744 C5.03255814,9.84976744 4.30348837,9.67069767 3.65372093,9.31255814 C3.00395349,8.9544186 2.49488372,8.46069767 2.12651163,7.83139535 C1.75813953,7.20209302 1.57395349,6.49860465 1.57395349,5.72093023 C1.57395349,4.93302326 1.75813953,4.2244186 2.12651163,3.59511628 C2.49488372,2.96581395 3.00395349,2.47465116 3.65372093,2.12162791 C4.30348837,1.76860465 5.03767442,1.59209302 5.85627907,1.59209302 C7.07395349,1.59209302 8.11255814,2.00651163 8.97209302,2.83534884 L8.97209302,2.83534884 L9.92372093,1.88372093 C9.43255814,1.34139535 8.83651163,0.929534884 8.1355814,0.648139535 C7.43465116,0.366744186 6.6544186,0.226046512 5.79488372,0.226046512 C4.7,0.226046512 3.71511628,0.461395349 2.84023256,0.932093023 C1.96534884,1.4027907 1.27976744,2.05767442 0.783488372,2.89674419 C0.287209302,3.73581395 0.0390697674,4.6772093 0.0390697674,5.72093023 C0.0390697674,6.76465116 0.287209302,7.70348837 0.783488372,8.53744186 C1.27976744,9.37139535 1.9627907,10.0262791 2.83255814,10.502093 C3.70232558,10.977907 4.67953488,11.215814 5.76418605,11.215814 Z M20.5604651,11.0930233 L20.5604651,9.75767442 L14.2981395,9.75767442 L14.2981395,6.28883721 L19.6855814,6.28883721 L19.6855814,4.98418605 L14.2981395,4.98418605 L14.2981395,1.68418605 L20.3455814,1.68418605 L20.3455814,0.348837209 L12.7632558,0.348837209 L12.7632558,11.0930233 L20.5604651,11.0930233 Z M27.8972093,11.215814 C28.9716279,11.215814 29.9437209,10.977907 30.8134884,10.502093 C31.6832558,10.0262791 32.3637209,9.37139535 32.8548837,8.53744186 C33.3460465,7.70348837 33.5916279,6.76465116 33.5916279,5.72093023 C33.5916279,4.6772093 33.3460465,3.73837209 32.8548837,2.9044186 C32.3637209,2.07046512 31.6832558,1.4155814 30.8134884,0.939767442 C29.9437209,0.463953488 28.9716279,0.226046512 27.8972093,0.226046512 C26.8125581,0.226046512 25.8353488,0.463953488 24.9655814,0.939767442 C24.095814,1.4155814 23.4127907,2.07302326 22.9165116,2.91209302 C22.4202326,3.75116279 22.172093,4.68744186 22.172093,5.72093023 C22.172093,6.7544186 22.4202326,7.69069767 22.9165116,8.52976744 C23.4127907,9.36883721 24.095814,10.0262791 24.9655814,10.502093 C25.8353488,10.977907 26.8125581,11.215814 27.8972093,11.215814 Z M27.8972093,9.84976744 C27.1093023,9.84976744 26.3955814,9.67069767 25.7560465,9.31255814 C25.1165116,8.9544186 24.6151163,8.46069767 24.2518605,7.83139535 C23.8886047,7.20209302 23.7069767,6.49860465 23.7069767,5.72093023 C23.7069767,4.94325581 23.8886047,4.23976744 24.2518605,3.61046512 C24.6151163,2.98116279 25.1165116,2.48744186 25.7560465,2.12930233 C26.3955814,1.77116279 27.1093023,1.59209302 27.8972093,1.59209302 C28.6851163,1.59209302 29.3937209,1.77116279 30.0230233,2.12930233 C30.6523256,2.48744186 31.1486047,2.98116279 31.5118605,3.61046512 C31.8751163,4.23976744 32.0567442,4.94325581 32.0567442,5.72093023 C32.0567442,6.49860465 31.8751163,7.20209302 31.5118605,7.83139535 C31.1486047,8.46069767 30.6523256,8.9544186 30.0230233,9.31255814 C29.3937209,9.67069767 28.6851163,9.84976744 27.8972093,9.84976744 Z M39.0711628,11.215814 C39.9818605,11.215814 40.7493023,11.0802326 41.3734884,10.8090698 C41.9976744,10.537907 42.4632558,10.1695349 42.7702326,9.70395349 C43.0772093,9.23837209 43.2306977,8.72418605 43.2306977,8.16139535 C43.2306977,7.48604651 43.054186,6.94883721 42.7011628,6.54976744 C42.3481395,6.15069767 41.9260465,5.85395349 41.4348837,5.65953488 C40.9437209,5.46511628 40.2939535,5.27069767 39.4855814,5.07627907 C38.8613953,4.93302326 38.3676744,4.79744186 38.0044186,4.66953488 C37.6411628,4.54162791 37.3367442,4.36255814 37.0911628,4.13232558 C36.8455814,3.90209302 36.7227907,3.6027907 36.7227907,3.2344186 C36.7227907,2.73302326 36.9402326,2.32372093 37.3751163,2.00651163 C37.81,1.68930233 38.4623256,1.53069767 39.332093,1.53069767 C39.8232558,1.53069767 40.3246512,1.60488372 40.8362791,1.75325581 C41.347907,1.90162791 41.8288372,2.11906977 42.2790698,2.4055814 L42.2790698,2.4055814 L42.7855814,1.17767442 C42.3455814,0.870697674 41.8186047,0.635348837 41.2046512,0.471627907 C40.5906977,0.307906977 39.9665116,0.226046512 39.332093,0.226046512 C38.4213953,0.226046512 37.6590698,0.364186047 37.0451163,0.640465116 C36.4311628,0.916744186 35.9732558,1.28511628 35.6713953,1.7455814 C35.3695349,2.20604651 35.2186047,2.7227907 35.2186047,3.29581395 C35.2186047,3.98139535 35.3951163,4.52627907 35.7481395,4.93046512 C36.1011628,5.33465116 36.525814,5.63395349 37.022093,5.82837209 C37.5183721,6.0227907 38.1706977,6.2172093 38.9790698,6.41162791 C39.6237209,6.56511628 40.1225581,6.70325581 40.4755814,6.82604651 C40.8286047,6.94883721 41.1253488,7.12534884 41.365814,7.3555814 C41.6062791,7.58581395 41.7265116,7.88511628 41.7265116,8.25348837 C41.7265116,8.75488372 41.5065116,9.15651163 41.0665116,9.45837209 C40.6265116,9.76023256 39.9613953,9.91116279 39.0711628,9.91116279 C38.395814,9.91116279 37.7383721,9.79604651 37.0988372,9.56581395 C36.4593023,9.3355814 35.9348837,9.03627907 35.5255814,8.66790698 L35.5255814,8.66790698 L34.9576744,9.86511628 C35.3874419,10.264186 35.9783721,10.5890698 36.7304651,10.8397674 C37.4825581,11.0904651 38.2627907,11.215814 39.0711628,11.215814 Z M47.0065116,11.0930233 L47.0065116,7.83906977 L49.6618605,7.83906977 C51.0534884,7.83906977 52.1483721,7.50651163 52.9465116,6.84139535 C53.7446512,6.17627907 54.1437209,5.26046512 54.1437209,4.09395349 C54.1437209,2.92744186 53.7446512,2.01162791 52.9465116,1.34651163 C52.1483721,0.681395349 51.0534884,0.348837209 49.6618605,0.348837209 L49.6618605,0.348837209 L45.4716279,0.348837209 L45.4716279,11.0930233 L47.0065116,11.0930233 Z M49.615814,6.50372093 L47.0065116,6.50372093 L47.0065116,1.68418605 L49.615814,1.68418605 C50.587907,1.68418605 51.3297674,1.89139535 51.8413953,2.30581395 C52.3530233,2.72023256 52.6088372,3.31627907 52.6088372,4.09395349 C52.6088372,4.87162791 52.3530233,5.46767442 51.8413953,5.88209302 C51.3297674,6.29651163 50.587907,6.50372093 49.615814,6.50372093 L49.615814,6.50372093 Z M56.5074419,11.0930233 L57.6893023,8.40697674 L63.3990698,8.40697674 L64.5809302,11.0930233 L66.1925581,11.0930233 L61.3116279,0.348837209 L59.792093,0.348837209 L54.9265116,11.0930233 L56.5074419,11.0930233 Z M62.8618605,7.17906977 L58.2265116,7.17906977 L60.544186,1.9144186 L62.8618605,7.17906977 Z M71.4418605,11.0930233 L71.4418605,1.68418605 L75.1255814,1.68418605 L75.1255814,0.348837209 L66.2386047,0.348837209 L66.2386047,1.68418605 L69.9223256,1.68418605 L69.9223256,11.0930233 L71.4418605,11.0930233 Z M78.3334884,11.0930233 L78.3334884,0.348837209 L76.7986047,0.348837209 L76.7986047,11.0930233 L78.3334884,11.0930233 Z M81.5106977,11.0930233 L82.6925581,8.40697674 L88.4023256,8.40697674 L89.584186,11.0930233 L91.195814,11.0930233 L86.3148837,0.348837209 L84.7953488,0.348837209 L79.9297674,11.0930233 L81.5106977,11.0930233 Z M87.8651163,7.17906977 L83.2297674,7.17906977 L85.5474419,1.9144186 L87.8651163,7.17906977 Z M100.144186,11.0930233 L100.144186,9.75767442 L94.3269767,9.75767442 L94.3269767,0.348837209 L92.792093,0.348837209 L92.792093,11.0930233 L100.144186,11.0930233 Z" id="GEOSPATIAL"></path>
                <polygon id="-" points="9.83023256 6.33069767 9.83023256 5.05674419 5.68883721 5.05674419 5.68883721 6.33069767"></polygon>
            </g>
        </g>
    </g>
</svg>