<?xml version="1.0" encoding="UTF-8"?>
<svg width="370px" height="200px" viewBox="0 0 370 200" version="1.1" xmlns="http://www.w3.org/2000/svg" xmlns:xlink="http://www.w3.org/1999/xlink">
    <title>vector/vector-satelite-yellow</title>
    <defs>
        <filter id="filter-1">
            <feColorMatrix in="SourceGraphic" type="matrix" values="0 0 0 0 1.000000 0 0 0 0 0.815686 0 0 0 0 0.474510 0 0 0 1.000000 0"></feColorMatrix>
        </filter>
        <filter id="filter-2">
            <feColorMatrix in="SourceGraphic" type="matrix" values="0 0 0 0 1.000000 0 0 0 0 0.815686 0 0 0 0 0.474510 0 0 0 1.000000 0"></feColorMatrix>
        </filter>
        <filter id="filter-3">
            <feColorMatrix in="SourceGraphic" type="matrix" values="0 0 0 0 1.000000 0 0 0 0 0.815686 0 0 0 0 0.474510 0 0 0 1.000000 0"></feColorMatrix>
        </filter>
        <filter id="filter-4">
            <feColorMatrix in="SourceGraphic" type="matrix" values="0 0 0 0 1.000000 0 0 0 0 0.815686 0 0 0 0 0.474510 0 0 0 1.000000 0"></feColorMatrix>
        </filter>
        <filter id="filter-5">
            <feColorMatrix in="SourceGraphic" type="matrix" values="0 0 0 0 1.000000 0 0 0 0 0.815686 0 0 0 0 0.474510 0 0 0 1.000000 0"></feColorMatrix>
        </filter>
        <filter id="filter-6">
            <feColorMatrix in="SourceGraphic" type="matrix" values="0 0 0 0 1.000000 0 0 0 0 0.815686 0 0 0 0 0.474510 0 0 0 1.000000 0"></feColorMatrix>
        </filter>
        <filter id="filter-7">
            <feColorMatrix in="SourceGraphic" type="matrix" values="0 0 0 0 1.000000 0 0 0 0 0.815686 0 0 0 0 0.474510 0 0 0 1.000000 0"></feColorMatrix>
        </filter>
    </defs>
    <g id="vector/vector-satelite-yellow" stroke="none" stroke-width="1" fill="none" fill-rule="evenodd">
        <g id="Group-3" transform="translate(-0.000000, 0.000000)">
            <g filter="url(#filter-1)" id="Group-5">
                <g transform="translate(201.052632, 0.000000)">
                    <g id="satelite-4-copy-8" filter="url(#filter-2)">
                        <g id="Group-11" stroke="#000000" stroke-width="1.5">
                            <polygon id="Stroke-1" points="66.1956824 45.4763864 36.14614 28.0435492 0.0866196899 48.9629538 30.1363355 66.395791"></polygon>
                            <line x1="18.585957" y1="38.7755672" x2="48.6354995" y2="56.2084044" id="Stroke-3"></line>
                            <polyline id="Stroke-4" points="36.1460706 28.0434795 36.1460706 14.0972097 48.1660263 7.12407487 78.2153954 24.5569121 77.9586224 38.3542279 66.1956131 45.4763167 66.1956131 31.5302211 78.2153954 24.5569121"></polyline>
                            <line x1="66.1956824" y1="31.5301689" x2="36.14614" y2="14.0973317" id="Stroke-5"></line>
                            <polyline id="Stroke-6" points="60.1857739 14.0972446 84.2253385 0.150974833 114.274881 17.583812 89.896709 31.5300818 77.9585878 38.3540885"></polyline>
                            <line x1="65.7720504" y1="10.3648944" x2="95.8215929" y2="27.7977316" id="Stroke-8"></line>
                            <path d="M75.16486,35.0166841 C74.3882996,37.9285158 72.4339819,40.2891308 70.7995467,40.2891308 C69.1652849,40.2891308 68.4698654,37.9285158 69.2462524,35.0166841 C70.0228129,32.1048523 71.9771306,29.7442373 73.6115658,29.7442373 C75.2458276,29.7442373 75.9414205,32.1048523 75.16486,35.0166841 Z" id="Stroke-9"></path>
                        </g>
                    </g>
                    <g id="satelite-4-copy-9" transform="translate(53.684211, 84.210526)" filter="url(#filter-3)">
                        <g id="Group-11" stroke="#000000" stroke-width="1.5">
                            <polygon id="Stroke-1" points="66.1956824 45.4763864 36.14614 28.0435492 0.0866196899 48.9629538 30.1363355 66.395791"></polygon>
                            <line x1="18.585957" y1="38.7755672" x2="48.6354995" y2="56.2084044" id="Stroke-3"></line>
                            <polyline id="Stroke-4" points="36.1460706 28.0434795 36.1460706 14.0972097 48.1660263 7.12407487 78.2153954 24.5569121 77.9586224 38.3542279 66.1956131 45.4763167 66.1956131 31.5302211 78.2153954 24.5569121"></polyline>
                            <line x1="66.1956824" y1="31.5301689" x2="36.14614" y2="14.0973317" id="Stroke-5"></line>
                            <polyline id="Stroke-6" points="60.1857739 14.0972446 84.2253385 0.150974833 114.274881 17.583812 89.896709 31.5300818 77.9585878 38.3540885"></polyline>
                            <line x1="65.7720504" y1="10.3648944" x2="95.8215929" y2="27.7977316" id="Stroke-8"></line>
                            <path d="M75.16486,35.0166841 C74.3882996,37.9285158 72.4339819,40.2891308 70.7995467,40.2891308 C69.1652849,40.2891308 68.4698654,37.9285158 69.2462524,35.0166841 C70.0228129,32.1048523 71.9771306,29.7442373 73.6115658,29.7442373 C75.2458276,29.7442373 75.9414205,32.1048523 75.16486,35.0166841 Z" id="Stroke-9"></path>
                        </g>
                    </g>
                </g>
            </g>
            <g filter="url(#filter-4)" id="Group-4">
                <g transform="translate(0.000000, 8.421053)">
                    <g id="satelite-4-copy-11" transform="translate(0.000000, 81.052632)" filter="url(#filter-5)">
                        <g id="Group-11" stroke="#000000" stroke-width="1.5">
                            <polygon id="Stroke-1" points="66.1140314 45.3016519 36.1015544 27.9357971 0.0865128462 48.7748229 30.0991629 66.1406777"></polygon>
                            <line x1="18.5630316" y1="38.6265794" x2="48.5755086" y2="55.9924342" id="Stroke-3"></line>
                            <polyline id="Stroke-4" points="36.1014852 27.9357277 36.1014852 14.0430439 48.1066145 7.09670195 78.1189182 24.4625567 77.862462 38.206859 66.1139621 45.3015825 66.1139621 31.4090722 78.1189182 24.4625567"></polyline>
                            <line x1="66.1140314" y1="31.4090201" x2="36.1015544" y2="14.0431654" id="Stroke-5"></line>
                            <polyline id="Stroke-6" points="60.111536 14.0430786 84.1214483 0.150394741 114.133925 17.5162495 89.7858232 31.4089334 77.8624274 38.2067201"></polyline>
                            <line x1="65.6909219" y1="10.3250693" x2="95.7033988" y2="27.6909241" id="Stroke-8"></line>
                            <path d="M75.0721457,34.882139 C74.2965431,37.7827826 72.344636,40.1343274 70.7122168,40.1343274 C69.0799709,40.1343274 68.3854092,37.7827826 69.1608386,34.882139 C69.9364411,31.9814955 71.8883482,29.6299507 73.5207674,29.6299507 C75.1530134,29.6299507 75.8477482,31.9814955 75.0721457,34.882139 Z" id="Stroke-9"></path>
                        </g>
                    </g>
                    <g id="satelite-4-copy-11" transform="translate(66.315789, 0.000000)" filter="url(#filter-6)">
                        <g id="Group-11" stroke="#000000" stroke-width="1.5">
                            <polygon id="Stroke-1" points="66.1140314 45.3016519 36.1015544 27.9357971 0.0865128462 48.7748229 30.0991629 66.1406777"></polygon>
                            <line x1="18.5630316" y1="38.6265794" x2="48.5755086" y2="55.9924342" id="Stroke-3"></line>
                            <polyline id="Stroke-4" points="36.1014852 27.9357277 36.1014852 14.0430439 48.1066145 7.09670195 78.1189182 24.4625567 77.862462 38.206859 66.1139621 45.3015825 66.1139621 31.4090722 78.1189182 24.4625567"></polyline>
                            <line x1="66.1140314" y1="31.4090201" x2="36.1015544" y2="14.0431654" id="Stroke-5"></line>
                            <polyline id="Stroke-6" points="60.111536 14.0430786 84.1214483 0.150394741 114.133925 17.5162495 89.7858232 31.4089334 77.8624274 38.2067201"></polyline>
                            <line x1="65.6909219" y1="10.3250693" x2="95.7033988" y2="27.6909241" id="Stroke-8"></line>
                            <path d="M75.0721457,34.882139 C74.2965431,37.7827826 72.344636,40.1343274 70.7122168,40.1343274 C69.0799709,40.1343274 68.3854092,37.7827826 69.1608386,34.882139 C69.9364411,31.9814955 71.8883482,29.6299507 73.5207674,29.6299507 C75.1530134,29.6299507 75.8477482,31.9814955 75.0721457,34.882139 Z" id="Stroke-9"></path>
                        </g>
                    </g>
                    <g id="satelite-4-copy-13" transform="translate(104.775707, 125.242666)" filter="url(#filter-7)">
                        <g id="Group-11" stroke="#000000" stroke-width="1.5">
                            <polygon id="Stroke-1" points="66.1140314 45.3016519 36.1015544 27.9357971 0.0865128462 48.7748229 30.0991629 66.1406777"></polygon>
                            <line x1="18.5630316" y1="38.6265794" x2="48.5755086" y2="55.9924342" id="Stroke-3"></line>
                            <polyline id="Stroke-4" points="36.1014852 27.9357277 36.1014852 14.0430439 48.1066145 7.09670195 78.1189182 24.4625567 77.862462 38.206859 66.1139621 45.3015825 66.1139621 31.4090722 78.1189182 24.4625567"></polyline>
                            <line x1="66.1140314" y1="31.4090201" x2="36.1015544" y2="14.0431654" id="Stroke-5"></line>
                            <polyline id="Stroke-6" points="60.111536 14.0430786 84.1214483 0.150394741 114.133925 17.5162495 89.7858232 31.4089334 77.8624274 38.2067201"></polyline>
                            <line x1="65.6909219" y1="10.3250693" x2="95.7033988" y2="27.6909241" id="Stroke-8"></line>
                            <path d="M75.0721457,34.882139 C74.2965431,37.7827826 72.344636,40.1343274 70.7122168,40.1343274 C69.0799709,40.1343274 68.3854092,37.7827826 69.1608386,34.882139 C69.9364411,31.9814955 71.8883482,29.6299507 73.5207674,29.6299507 C75.1530134,29.6299507 75.8477482,31.9814955 75.0721457,34.882139 Z" id="Stroke-9"></path>
                        </g>
                    </g>
                </g>
            </g>
        </g>
    </g>
</svg>