<?xml version="1.0" encoding="UTF-8"?>
<svg width="625px" height="561px" viewBox="0 0 625 561" version="1.1" xmlns="http://www.w3.org/2000/svg" xmlns:xlink="http://www.w3.org/1999/xlink">
    <title>vector/vector-laptop</title>
    <g id="vector/vector-laptop" stroke="none" stroke-width="1" fill="none" fill-rule="evenodd">
        <g id="Group-23" stroke-width="3">
            <polygon id="Stroke-1" stroke="#FFFFFF" points="0.3559 200.1401 69.6829 440.2961 277.6649 560.3741 624.2999 360.2441 416.3189 240.1661 346.9919 0.0101"></polygon>
            <polyline id="Stroke-21" stroke="#000000" fill="#FFD079" points="147.4473 161.5762 170.8893 177.2042 167.5243 193.9462 167.5243 224.4392 202.1873 244.4522 202.1873 284.4782 218.8893 284.3672 257.6453 196.4192 202.1873 164.4002 174.2383 159.3442 182 133"></polyline>
            <polygon id="Stroke-1" stroke="#000000" fill="#FFD079" points="69.6826 440.2994 277.6646 560.3774 624.3006 360.2474 416.3186 240.1694"></polygon>
            <line x1="139.0103" y1="440.2994" x2="416.3193" y2="280.1954" id="Stroke-5" stroke="#000000"></line>
            <line x1="173.4693" y1="460.4302" x2="450.9823" y2="300.2082" id="Stroke-7" stroke="#000000"></line>
            <line x1="206.9575" y1="479.4073" x2="485.6455" y2="320.2213" id="Stroke-9" stroke="#000000"></line>
            <line x1="240.6646" y1="499.3516" x2="275.3286" y2="479.3386" id="Stroke-13" stroke="#000000"></line>
            <line x1="309.9917" y1="459.3252" x2="448.6457" y2="379.2732" id="Stroke-15" stroke="#000000"></line>
            <line x1="483.3091" y1="359.2603" x2="517.9731" y2="339.2473" id="Stroke-17" stroke="#000000"></line>
            <path d="M308.856,212.3721 C308.856,260.9721 269.458,300.3701 220.858,300.3701 C172.258,300.3701 132.86,260.9721 132.86,212.3721 C132.86,186.2861 144.211,162.8511 162.243,146.7361 C177.806,132.8291 198.345,124.3741 220.858,124.3741 C269.458,124.3741 308.856,163.7721 308.856,212.3721 Z" id="Stroke-19" stroke="#000000"></path>
        </g>
        <g id="Group-4" stroke="#000000" stroke-width="3">
            <polygon id="Stroke-1" points="0.3559 200.1401 69.6829 440.2961 277.6649 560.3741 624.2999 360.2441 416.3189 240.1661 346.9919 0.0101"></polygon>
            <line x1="69.6831" y1="440.2964" x2="416.3191" y2="240.1664" id="Stroke-3"></line>
        </g>
    </g>
</svg>