<?xml version="1.0" encoding="UTF-8"?>
<svg width="344px" height="200px" viewBox="0 0 344 200" version="1.1" xmlns="http://www.w3.org/2000/svg" xmlns:xlink="http://www.w3.org/1999/xlink">
    <title>vector/vector-tiles-yellow</title>
    <defs>
        <filter id="filter-1">
            <feColorMatrix in="SourceGraphic" type="matrix" values="0 0 0 0 1.000000 0 0 0 0 0.815686 0 0 0 0 0.474510 0 0 0 1.000000 0"></feColorMatrix>
        </filter>
    </defs>
    <g id="vector/vector-tiles-yellow" stroke="none" stroke-width="1" fill="none" fill-rule="evenodd">
        <g id="vector-tiles-1" transform="translate(-0.000000, 0.000000)" filter="url(#filter-1)">
            <g transform="translate(171.563981, 100.000000) scale(-1, -1) translate(-171.563981, -100.000000) translate(-0.000000, 0.000000)">
                <g id="Group-103" stroke="#000000" stroke-width="1.5">
                    <polygon id="Stroke-1" points="0.420827151 84.2361558 18.4971002 73.8397922 36.5728518 84.2361558 18.4971002 94.6325195"></polygon>
                    <polygon id="Stroke-3" points="18.5205664 73.825974 36.5968395 63.4296104 54.6725911 73.825974 36.5968395 84.2223377"></polygon>
                    <polygon id="Stroke-4" points="36.6203057 63.4160519 54.6965787 53.0196883 72.7723303 63.4160519 54.6965787 73.8124156"></polygon>
                    <polygon id="Stroke-5" points="54.7199928 53.0059221 72.7962659 42.6095584 90.8720175 53.0059221 72.7962659 63.4022857"></polygon>
                    <polygon id="Stroke-6" points="109.019211 21.7759481 127.095484 11.3795844 145.171235 21.7759481 127.095484 32.1723117"></polygon>
                    <g id="Group-11" transform="translate(0.000000, 0.485714)">
                        <polygon id="Stroke-7" points="127.11895 10.8803117 145.195223 0.483948052 163.270975 10.8803117 145.195223 21.2766753"></polygon>
                        <polygon id="Stroke-9" opacity="0" points="0.260683386 104.635169 18.3369565 94.2388052 36.412708 104.635169 18.3369565 115.031532"></polygon>
                    </g>
                    <polygon id="Stroke-12" points="18.3366957 94.7244156 36.4129688 84.3280519 54.4887204 94.7244156 36.4129688 105.120779"></polygon>
                    <polygon id="Stroke-13" opacity="0" points="36.436435 84.3144935 54.512708 73.9181299 72.5884596 84.3144935 54.512708 94.7108571"></polygon>
                    <polygon id="Stroke-14" opacity="0" points="54.5361742 73.9043636 72.6124473 63.508 90.6887204 73.9043636 72.6124473 84.3007273"></polygon>
                    <polygon id="Stroke-15" points="72.6361742 63.4944416 90.7124473 53.0980779 108.788199 63.4944416 90.7124473 73.8908052"></polygon>
                    <polygon id="Stroke-16" points="90.7359135 53.0843117 108.812187 42.6879481 126.887938 53.0843117 108.812187 63.4806753"></polygon>
                    <polygon id="Stroke-17" points="108.835601 42.6743896 126.911874 32.278026 144.987625 42.6743896 126.911874 53.0707532"></polygon>
                    <polygon id="Stroke-18" points="126.93534 32.2644675 145.011613 21.8681039 163.087365 32.2644675 145.011613 42.6608312"></polygon>
                    <polygon id="Stroke-19" points="145.035079 21.8543377 163.111352 11.457974 181.187104 21.8543377 163.111352 32.2507013"></polygon>
                    <polygon id="Stroke-20" points="163.134818 11.4444156 181.211091 1.04805195 199.286843 11.4444156 181.211091 21.8407792"></polygon>
                    <polygon id="Stroke-22" points="18.1768127 115.609143 36.2530858 105.212779 54.3288374 115.609143 36.2530858 126.005506"></polygon>
                    <polygon id="Stroke-23" points="36.2528772 105.212935 54.3291502 94.8165714 72.4049018 105.212935 54.3291502 115.609299"></polygon>
                    <polygon id="Stroke-24" opacity="0" points="54.3526164 94.8028052 72.4288895 84.4064416 90.5046411 94.8028052 72.4288895 105.199169"></polygon>
                    <polygon id="Stroke-25" opacity="0" points="72.4523035 84.3928831 90.5285766 73.9965195 108.604328 84.3928831 90.5285766 94.7892468"></polygon>
                    <polygon id="Stroke-26" opacity="0" points="90.5520428 73.9827532 108.628316 63.5863896 126.704067 73.9827532 108.628316 84.3791169"></polygon>
                    <polygon id="Stroke-27" points="108.651782 63.5728312 126.728055 53.1764675 144.803807 63.5728312 126.728055 73.9691948"></polygon>
                    <polygon id="Stroke-28" points="126.751521 53.1626494 144.827794 42.7662857 162.904067 53.1626494 144.827794 63.559013"></polygon>
                    <polygon id="Stroke-29" points="144.851521 42.7527792 162.927794 32.3564156 181.003546 42.7527792 162.927794 53.1491429"></polygon>
                    <polygon id="Stroke-30" points="162.951261 32.3428571 181.027534 21.9464935 199.103285 32.3428571 181.027534 42.7392208"></polygon>
                    <polygon id="Stroke-31" points="181.050948 21.9327273 199.127221 11.5363636 217.202972 21.9327273 199.127221 32.3290909"></polygon>
                    <polygon id="Stroke-32" points="36.092942 126.097714 54.1692151 115.701351 72.2449667 126.097714 54.1692151 136.494078"></polygon>
                    <polygon id="Stroke-33" points="54.1690065 115.701247 72.2452795 105.304883 90.3210311 115.701247 72.2452795 126.09761"></polygon>
                    <polygon id="Stroke-34" opacity="0" points="72.2687457 105.291325 90.3450188 94.894961 108.42077 105.291325 90.3450188 115.687688"></polygon>
                    <polygon id="Stroke-35" opacity="0" points="90.368485 94.8811948 108.444758 84.4848312 126.52051 94.8811948 108.444758 105.277558"></polygon>
                    <polygon id="Stroke-36" points="108.468224 84.4712727 126.544497 74.0749091 144.620249 84.4712727 126.544497 94.8676364"></polygon>
                    <polygon id="Stroke-37" points="126.567911 74.0610909 144.644184 63.6647273 162.719936 74.0610909 144.644184 84.4574545"></polygon>
                    <polygon id="Stroke-38" opacity="0" points="144.667651 63.6512208 162.743924 53.2548571 180.819675 63.6512208 162.743924 74.0475844"></polygon>
                    <polygon id="Stroke-39" opacity="0" points="162.76739 53.2412987 180.843663 42.8449351 198.919415 53.2412987 180.843663 63.6376623"></polygon>
                    <polygon id="Stroke-40" points="180.867129 42.8311688 198.943402 32.4348052 217.019154 42.8311688 198.943402 53.2275325"></polygon>
                    <polygon id="Stroke-41" points="198.966868 32.4212468 217.043142 22.0248831 235.118893 32.4212468 217.043142 42.8176104"></polygon>
                    <polygon id="Stroke-42" points="72.084875 126.189506 90.1611481 115.793143 108.2369 126.189506 90.1611481 136.58587"></polygon>
                    <polygon id="Stroke-43" points="90.1846143 115.779636 108.260887 105.383273 126.33716 115.779636 108.260887 126.176"></polygon>
                    <polygon id="Stroke-44" opacity="0" points="108.284614 105.369714 126.360887 94.9733506 144.436639 105.369714 126.360887 115.766078"></polygon>
                    <polygon id="Stroke-45" opacity="0" points="126.384354 94.9595325 144.460627 84.5631688 162.536378 94.9595325 144.460627 105.355896"></polygon>
                    <polygon id="Stroke-46" points="144.484093 84.5496623 162.560366 74.1532987 180.636117 84.5496623 162.560366 94.946026"></polygon>
                    <polygon id="Stroke-47" opacity="0" points="162.583832 74.1394805 180.660105 63.7431169 198.735857 74.1394805 180.660105 84.5358442"></polygon>
                    <polygon id="Stroke-48" opacity="0" points="180.683571 63.7295584 198.759844 53.3331948 216.835596 63.7295584 198.759844 74.1259221"></polygon>
                    <polygon id="Stroke-49" points="198.783258 53.3196883 216.859532 42.9233247 234.935805 53.3196883 216.859532 63.7160519"></polygon>
                    <polygon id="Stroke-50" points="90.0010565 136.678026 108.07733 126.281662 126.153081 136.678026 108.07733 147.07439"></polygon>
                    <polygon id="Stroke-51" points="108.100796 126.268156 126.177069 115.871792 144.25282 126.268156 126.177069 136.664519"></polygon>
                    <polygon id="Stroke-52" points="126.200535 115.857974 144.276808 105.46161 162.35256 115.857974 144.276808 126.254338"></polygon>
                    <polygon id="Stroke-53" points="144.300274 105.448104 162.376547 95.0517403 180.452299 105.448104 162.376547 115.844468"></polygon>
                    <polygon id="Stroke-54" points="162.399961 95.0379221 180.476234 84.6415584 198.552508 95.0379221 180.476234 105.434286"></polygon>
                    <polygon id="Stroke-55" opacity="0" points="180.499961 84.6280519 198.576234 74.2316883 216.651986 84.6280519 198.576234 95.0244156"></polygon>
                    <polygon id="Stroke-56" opacity="0" points="198.599701 74.2178701 216.675452 63.8215065 234.751725 74.2178701 216.675452 84.6142338"></polygon>
                    <polygon id="Stroke-57" points="216.69944 63.8079481 234.775192 53.4115844 252.851465 63.8079481 234.775192 74.2043117"></polygon>
                    <polygon id="Stroke-58" points="89.8411213 157.562805 107.917394 147.166442 125.993146 157.562805 107.917394 167.959169"></polygon>
                    <polygon id="Stroke-59" points="107.917186 147.166338 125.993459 136.769974 144.06921 147.166338 125.993459 157.562701"></polygon>
                    <polygon id="Stroke-60" opacity="0" points="126.016925 136.756416 144.093198 126.360052 162.16895 136.756416 144.093198 147.152779"></polygon>
                    <polygon id="Stroke-61" opacity="0" points="144.116664 126.346545 162.192937 115.950182 180.268689 126.346545 162.192937 136.742909"></polygon>
                    <polygon id="Stroke-62" points="162.216404 115.936364 180.292677 105.54 198.368428 115.936364 180.292677 126.332727"></polygon>
                    <polygon id="Stroke-63" opacity="0" points="180.316143 105.526442 198.392416 95.1300779 216.468168 105.526442 198.392416 115.922805"></polygon>
                    <polygon id="Stroke-64" points="198.415882 95.1163117 216.492155 84.7199481 234.567907 95.1163117 216.492155 105.512675"></polygon>
                    <polygon id="Stroke-65" points="216.515569 84.7063896 234.591842 74.310026 252.667594 84.7063896 234.591842 95.1027532"></polygon>
                    <polygon id="Stroke-66" points="234.615308 74.2962597 252.691582 63.8998961 270.767333 74.2962597 252.691582 84.6926234"></polygon>
                    <polygon id="Stroke-67" points="107.757042 168.051325 125.833315 157.654961 143.909588 168.051325 125.833315 178.447688"></polygon>
                    <polygon id="Stroke-68" points="125.833106 157.654857 143.90938 147.258494 161.985653 157.654857 143.90938 168.051221"></polygon>
                    <polygon id="Stroke-69" opacity="0" points="143.933054 147.244675 162.009327 136.848312 180.085079 147.244675 162.009327 157.641039"></polygon>
                    <polygon id="Stroke-70" points="162.032794 136.834805 180.109067 126.438442 198.184818 136.834805 180.109067 147.231169"></polygon>
                    <polygon id="Stroke-71" points="180.132533 126.424883 198.208806 116.028519 216.284558 126.424883 198.208806 136.821247"></polygon>
                    <polygon id="Stroke-72" opacity="0" points="198.232272 116.014753 216.308545 105.61839 234.384297 116.014753 216.308545 126.411117"></polygon>
                    <polygon id="Stroke-73" opacity="0" points="216.331751 105.604831 234.408024 95.2084675 252.483775 105.604831 234.408024 116.001195"></polygon>
                    <polygon id="Stroke-74" points="234.432011 95.1947013 252.507763 84.7983377 270.584036 95.1947013 252.507763 105.591065"></polygon>
                    <polygon id="Stroke-75" points="252.531699 84.7847792 270.60745 74.3884156 288.683723 84.7847792 270.60745 95.1811429"></polygon>
                    <polygon id="Stroke-76" points="270.631438 74.3746494 288.707189 63.9782857 306.783462 74.3746494 288.707189 84.771013"></polygon>
                    <polygon id="Stroke-77" points="143.749236 168.143169 161.825509 157.746805 179.90126 168.143169 161.825509 178.539532"></polygon>
                    <polygon id="Stroke-78" points="161.848975 157.733247 179.925248 147.336883 198.001 157.733247 179.925248 168.12961"></polygon>
                    <polygon id="Stroke-79" points="179.948714 147.323065 198.024987 136.926701 216.10126 147.323065 198.024987 157.719429"></polygon>
                    <polygon id="Stroke-80" points="198.048454 136.913195 216.124727 126.516831 234.201 136.913195 216.124727 147.309558"></polygon>
                    <polygon id="Stroke-81" opacity="0" points="216.148401 126.503273 234.224153 116.106909 252.300426 126.503273 234.224153 136.899636"></polygon>
                    <polygon id="Stroke-82" opacity="0" points="234.248141 116.093143 252.323892 105.696779 270.400165 116.093143 252.323892 126.489506"></polygon>
                    <polygon id="Stroke-83" points="252.34788 105.683221 270.423632 95.2868571 288.499905 105.683221 270.423632 116.079584"></polygon>
                    <polygon id="Stroke-84" points="270.447619 95.2730909 288.523371 84.8767273 306.599644 95.2730909 288.523371 105.669455"></polygon>
                    <polygon id="Stroke-85" points="288.547359 84.8631688 306.62311 74.4668052 324.699383 84.8631688 306.623632 95.2595325"></polygon>
                    <polygon id="Stroke-86" points="179.765104 168.221506 197.841377 157.825143 215.917129 168.221506 197.841377 178.61787"></polygon>
                    <polygon id="Stroke-87" points="197.864844 157.811636 215.941117 147.415273 234.016868 157.811636 215.941117 168.208"></polygon>
                    <polygon id="Stroke-88" points="215.964583 147.401455 234.040856 137.005091 252.116608 147.401455 234.040856 157.797818"></polygon>
                    <polygon id="Stroke-89" points="234.064322 136.991532 252.140595 126.595169 270.216347 136.991532 252.140595 147.387896"></polygon>
                    <polygon id="Stroke-90" points="252.164061 126.581662 270.240334 116.185299 288.316086 126.581662 270.240334 136.978026"></polygon>
                    <polygon id="Stroke-91" points="270.263801 116.171481 288.340074 105.775117 306.415825 116.171481 288.340074 126.567844"></polygon>
                    <polygon id="Stroke-92" points="288.363488 105.76161 306.439761 95.3652468 324.515512 105.76161 306.439761 116.157974"></polygon>
                    <g id="Group-97" transform="translate(179.386047, 84.641558)">
                        <polygon id="Stroke-93" opacity="0" points="127.07718 10.7098701 145.153453 0.313506494 163.229205 10.7098701 145.153453 21.1062338"></polygon>
                        <polygon id="Stroke-95" points="0.195499503 104.47839 18.2717726 94.082026 36.3475242 104.47839 18.2717726 114.874753"></polygon>
                    </g>
                    <polygon id="Stroke-98" points="215.780764 168.299896 233.857037 157.903532 251.932789 168.299896 233.857037 178.69626"></polygon>
                    <polygon id="Stroke-99" points="233.880451 157.889974 251.956725 147.49361 270.032476 157.889974 251.956725 168.286338"></polygon>
                    <polygon id="Stroke-100" points="251.980191 147.479844 270.056464 137.083481 288.132215 147.479844 270.056464 157.876208"></polygon>
                    <polygon id="Stroke-101" opacity="0" points="306.27993 116.24987 324.355682 105.853506 342.431955 116.24987 324.355682 126.646234"></polygon>
                </g>
                <polygon id="Stroke-95" stroke="#000000" stroke-width="1.5" points="53.9070194 157.951117 71.9832925 147.554753 90.0590441 157.951117 71.9832925 168.347481"></polygon>
                <polygon id="Stroke-95-Copy-3" stroke="#000000" stroke-width="1.5" points="54.9499615 32.2368312 73.0262346 21.8404675 91.1019862 32.2368312 73.0262346 42.6331948"></polygon>
                <polygon id="Stroke-95-Copy" stroke="#000000" stroke-width="1.5" points="276.053694 42.6264416 294.129967 32.2300779 312.205719 42.6264416 294.129967 53.0228052"></polygon>
                <polygon id="Stroke-95-Copy-2" stroke="#000000" stroke-width="1.5" points="276.053694 21.8472208 294.129967 11.4508571 312.205719 21.8472208 294.129967 32.2435844"></polygon>
            </g>
        </g>
    </g>
</svg>